<svg width="22" height="22" viewBox="0 0 22 22" fill="none" xmlns="http://www.w3.org/2000/svg">
<g clip-path="url(#clip0_2_963)">
<path d="M8.25 13.75L13.75 8.25" stroke="#101011" stroke-width="2" stroke-linecap="round" stroke-linejoin="round"/>
<path d="M8.70833 9.16667C8.96146 9.16667 9.16667 8.96146 9.16667 8.70833C9.16667 8.4552 8.96146 8.25 8.70833 8.25C8.4552 8.25 8.25 8.4552 8.25 8.70833C8.25 8.96146 8.4552 9.16667 8.70833 9.16667Z" fill="black" stroke="#101011" stroke-width="2" stroke-linecap="round" stroke-linejoin="round"/>
<path d="M13.2917 13.75C13.5448 13.75 13.75 13.5448 13.75 13.2917C13.75 13.0385 13.5448 12.8333 13.2917 12.8333C13.0385 12.8333 12.8333 13.0385 12.8333 13.2917C12.8333 13.5448 13.0385 13.75 13.2917 13.75Z" fill="black" stroke="#101011" stroke-width="2" stroke-linecap="round" stroke-linejoin="round"/>
<path d="M4.58333 6.6C4.58333 6.06514 4.7958 5.5522 5.174 5.174C5.5522 4.7958 6.06514 4.58333 6.6 4.58333H7.51666C8.04915 4.58302 8.55991 4.37213 8.9375 3.99666L9.57916 3.355C9.76657 3.16653 9.98939 3.01697 10.2348 2.91491C10.4802 2.81285 10.7434 2.76031 11.0092 2.76031C11.2749 2.76031 11.5381 2.81285 11.7835 2.91491C12.0289 3.01697 12.2518 3.16653 12.4392 3.355L13.0808 3.99666C13.4584 4.37213 13.9692 4.58302 14.5017 4.58333H15.4183C15.9532 4.58333 16.4661 4.7958 16.8443 5.174C17.2225 5.5522 17.435 6.06514 17.435 6.6V7.51666C17.4353 8.04915 17.6462 8.55991 18.0217 8.9375L18.6633 9.57916C18.8518 9.76657 19.0014 9.98939 19.1034 10.2348C19.2055 10.4802 19.258 10.7434 19.258 11.0092C19.258 11.2749 19.2055 11.5381 19.1034 11.7835C19.0014 12.0289 18.8518 12.2518 18.6633 12.4392L18.0217 13.0808C17.6462 13.4584 17.4353 13.9692 17.435 14.5017V15.4183C17.435 15.9532 17.2225 16.4661 16.8443 16.8443C16.4661 17.2225 15.9532 17.435 15.4183 17.435H14.5017C13.9692 17.4353 13.4584 17.6462 13.0808 18.0217L12.4392 18.6633C12.2518 18.8518 12.0289 19.0014 11.7835 19.1034C11.5381 19.2055 11.2749 19.258 11.0092 19.258C10.7434 19.258 10.4802 19.2055 10.2348 19.1034C9.98939 19.0014 9.76657 18.8518 9.57916 18.6633L8.9375 18.0217C8.55991 17.6462 8.04915 17.4353 7.51666 17.435H6.6C6.06514 17.435 5.5522 17.2225 5.174 16.8443C4.7958 16.4661 4.58333 15.9532 4.58333 15.4183V14.5017C4.58302 13.9692 4.37213 13.4584 3.99666 13.0808L3.355 12.4392C3.16653 12.2518 3.01697 12.0289 2.91491 11.7835C2.81285 11.5381 2.76031 11.2749 2.76031 11.0092C2.76031 10.7434 2.81285 10.4802 2.91491 10.2348C3.01697 9.98939 3.16653 9.76657 3.355 9.57916L3.99666 8.9375C4.37213 8.55991 4.58302 8.04915 4.58333 7.51666V6.6" stroke="#101011" stroke-width="2" stroke-linecap="round" stroke-linejoin="round"/>
</g>
<defs>
<clipPath id="clip0_2_963">
<rect width="22" height="22" fill="white"/>
</clipPath>
</defs>
</svg>
