<svg width="16" height="16" viewBox="0 0 16 16" fill="none" xmlns="http://www.w3.org/2000/svg">
<g clip-path="url(#clip0_573_199)">
<path d="M9.33333 5.33333C10.0697 5.33333 10.6667 4.73638 10.6667 4C10.6667 3.26362 10.0697 2.66666 9.33333 2.66666C8.59695 2.66666 8 3.26362 8 4C8 4.73638 8.59695 5.33333 9.33333 5.33333Z" stroke="#2F3948" stroke-width="1.5" stroke-linecap="round" stroke-linejoin="round"/>
<path d="M2.66663 4H7.99996" stroke="#2F3948" stroke-width="1.5" stroke-linecap="round" stroke-linejoin="round"/>
<path d="M10.6666 4H13.3333" stroke="#2F3948" stroke-width="1.5" stroke-linecap="round" stroke-linejoin="round"/>
<path d="M5.33333 9.33333C6.06971 9.33333 6.66667 8.73638 6.66667 8C6.66667 7.26362 6.06971 6.66666 5.33333 6.66666C4.59695 6.66666 4 7.26362 4 8C4 8.73638 4.59695 9.33333 5.33333 9.33333Z" stroke="#2F3948" stroke-width="1.5" stroke-linecap="round" stroke-linejoin="round"/>
<path d="M2.66663 8H3.99996" stroke="#2F3948" stroke-width="1.5" stroke-linecap="round" stroke-linejoin="round"/>
<path d="M6.66663 8H13.3333" stroke="#2F3948" stroke-width="1.5" stroke-linecap="round" stroke-linejoin="round"/>
<path d="M11.3333 13.3333C12.0697 13.3333 12.6667 12.7364 12.6667 12C12.6667 11.2636 12.0697 10.6667 11.3333 10.6667C10.597 10.6667 10 11.2636 10 12C10 12.7364 10.597 13.3333 11.3333 13.3333Z" stroke="#2F3948" stroke-width="1.5" stroke-linecap="round" stroke-linejoin="round"/>
<path d="M2.66663 12H9.99996" stroke="#2F3948" stroke-width="1.5" stroke-linecap="round" stroke-linejoin="round"/>
<path d="M12.6666 12H13.3333" stroke="#2F3948" stroke-width="1.5" stroke-linecap="round" stroke-linejoin="round"/>
</g>
<defs>
<clipPath id="clip0_573_199">
<rect width="16" height="16" fill="white"/>
</clipPath>
</defs>
</svg>
