<svg width="22" height="22" viewBox="0 0 22 22" fill="none" xmlns="http://www.w3.org/2000/svg">
<path d="M15.125 8.61666L6.875 3.85916" stroke="#101011" stroke-width="2" stroke-linecap="round" stroke-linejoin="round"/>
<path d="M19.25 14.6667V7.33334C19.2497 7.01184 19.1648 6.69608 19.0039 6.41774C18.843 6.1394 18.6118 5.90826 18.3333 5.74751L11.9167 2.08084C11.638 1.91993 11.3218 1.83522 11 1.83522C10.6782 1.83522 10.362 1.91993 10.0833 2.08084L3.66667 5.74751C3.38824 5.90826 3.15698 6.1394 2.99609 6.41774C2.8352 6.69608 2.75033 7.01184 2.75 7.33334V14.6667C2.75033 14.9882 2.8352 15.3039 2.99609 15.5823C3.15698 15.8606 3.38824 16.0918 3.66667 16.2525L10.0833 19.9192C10.362 20.0801 10.6782 20.1648 11 20.1648C11.3218 20.1648 11.638 20.0801 11.9167 19.9192L18.3333 16.2525C18.6118 16.0918 18.843 15.8606 19.0039 15.5823C19.1648 15.3039 19.2497 14.9882 19.25 14.6667Z" stroke="#101011" stroke-width="2" stroke-linecap="round" stroke-linejoin="round"/>
<path d="M2.9975 6.38L11 11.0092L19.0025 6.38" stroke="#101011" stroke-width="2" stroke-linecap="round" stroke-linejoin="round"/>
<path d="M11 20.24V11" stroke="#101011" stroke-width="2" stroke-linecap="round" stroke-linejoin="round"/>
</svg>
