<svg width="22" height="22" viewBox="0 0 22 22" fill="none" xmlns="http://www.w3.org/2000/svg">
<g clip-path="url(#clip0_2_984)">
<path d="M11 11.9167C11.5063 11.9167 11.9167 11.5063 11.9167 11C11.9167 10.4937 11.5063 10.0833 11 10.0833C10.4937 10.0833 10.0833 10.4937 10.0833 11C10.0833 11.5063 10.4937 11.9167 11 11.9167Z" stroke="#101011" stroke-width="2" stroke-linecap="round" stroke-linejoin="round"/>
<path d="M11 15.5833C13.5313 15.5833 15.5833 13.5313 15.5833 11C15.5833 8.46868 13.5313 6.41666 11 6.41666C8.4687 6.41666 6.41667 8.46868 6.41667 11C6.41667 13.5313 8.4687 15.5833 11 15.5833Z" stroke="#101011" stroke-width="2" stroke-linecap="round" stroke-linejoin="round"/>
<path d="M11 19.25C15.5563 19.25 19.25 15.5563 19.25 11C19.25 6.44365 15.5563 2.75 11 2.75C6.44365 2.75 2.75 6.44365 2.75 11C2.75 15.5563 6.44365 19.25 11 19.25Z" stroke="#101011" stroke-width="2" stroke-linecap="round" stroke-linejoin="round"/>
</g>
<defs>
<clipPath id="clip0_2_984">
<rect width="22" height="22" fill="white"/>
</clipPath>
</defs>
</svg>
