<svg width="22" height="22" viewBox="0 0 22 22" fill="none" xmlns="http://www.w3.org/2000/svg">
<g clip-path="url(#clip0_2_943)">
<path d="M15.5833 19.25V17.4167C15.5833 16.4442 15.197 15.5116 14.5094 14.8239C13.8218 14.1363 12.8891 13.75 11.9167 13.75H4.58334C3.61088 13.75 2.67825 14.1363 1.99061 14.8239C1.30298 15.5116 0.916672 16.4442 0.916672 17.4167V19.25" stroke="#101011" stroke-width="2" stroke-linecap="round" stroke-linejoin="round"/>
<path d="M8.25 10.0833C10.275 10.0833 11.9167 8.44171 11.9167 6.41667C11.9167 4.39162 10.275 2.75 8.25 2.75C6.22495 2.75 4.58333 4.39162 4.58333 6.41667C4.58333 8.44171 6.22495 10.0833 8.25 10.0833Z" stroke="#101011" stroke-width="2" stroke-linecap="round" stroke-linejoin="round"/>
<path d="M21.0833 19.25V17.4167C21.0827 16.6043 20.8123 15.815 20.3146 15.173C19.8168 14.5309 19.1199 14.0723 18.3333 13.8692" stroke="#101011" stroke-width="2" stroke-linecap="round" stroke-linejoin="round"/>
<path d="M14.6667 2.86916C15.4554 3.07111 16.1545 3.52981 16.6537 4.17295C17.1529 4.81609 17.4239 5.60709 17.4239 6.42125C17.4239 7.2354 17.1529 8.0264 16.6537 8.66955C16.1545 9.31269 15.4554 9.77139 14.6667 9.97333" stroke="#101011" stroke-width="2" stroke-linecap="round" stroke-linejoin="round"/>
</g>
<defs>
<clipPath id="clip0_2_943">
<rect width="22" height="22" fill="white"/>
</clipPath>
</defs>
</svg>
